<svg width="60" height="43" viewBox="0 0 60 43" fill="none" xmlns="http://www.w3.org/2000/svg">
<g clip-path="url(#clip0_84_565)">
<path d="M0.5625 42.8306C8.2415 28.5994 15.9205 14.3681 23.6724 -5.00083e-08C24.3125 1.18007 24.8771 2.22194 25.4404 3.26246C27.2349 6.57234 29.0161 9.89171 30.8319 13.1853C31.195 13.8438 31.199 14.3126 30.6437 14.8125C29.4522 15.8815 28.2846 16.9843 27.0228 18.1522C25.8844 16.0684 24.8387 14.1568 23.6697 12.0202C20.3816 18.1115 17.1862 24.0308 13.9895 29.9502C14.0465 30.0206 14.1021 30.0897 14.1591 30.1602C19.2776 27.4437 24.0024 24.0105 28.4887 20.1343C33.0014 16.2337 37.0146 11.76 40.6672 6.88125C32.299 25.7827 18.6944 37.414 0.742746 43C0.683106 42.9431 0.62214 42.8862 0.5625 42.8293L0.5625 42.8306Z" fill="black"/>
<path d="M32.5298 24.7515L35.5516 20.916C35.8484 20.538 36.3852 20.5474 36.6662 20.9403C38.8596 24.0158 47.7327 34.986 59.5613 29.9988C59.5613 29.9988 46.1277 37.6035 32.5298 24.7515Z" fill="black"/>
</g>
<defs>
<clipPath id="clip0_84_565">
<rect width="59" height="43" fill="white" transform="translate(0.5625)"/>
</clipPath>
</defs>
</svg>
