<svg width="41" height="44" viewBox="0 0 41 44" fill="none" xmlns="http://www.w3.org/2000/svg">
<path d="M0 43.3306C7.679 29.0994 15.358 14.8681 23.1099 0.5C23.75 1.68007 24.3146 2.72194 24.8779 3.76246C26.6724 7.07234 28.4536 10.3917 30.2694 13.6853C30.6325 14.3438 30.6365 14.8126 30.0812 15.3125C28.8897 16.3815 27.7221 17.4843 26.4603 18.6522C25.3219 16.5684 24.2762 14.6568 23.1072 12.5202C19.8191 18.6115 16.6237 24.5308 13.427 30.4502C13.484 30.5206 13.5396 30.5897 13.5966 30.6602C18.7151 27.9437 23.4399 24.5105 27.9262 20.6343C32.4389 16.7337 36.4521 12.26 40.1047 7.38125C31.7365 26.2827 18.1319 37.914 0.180246 43.5C0.120606 43.4431 0.0596401 43.3862 0 43.3293V43.3306Z" fill="black"/>
</svg>
