<svg width="101" height="101" viewBox="0 0 101 101" fill="none" xmlns="http://www.w3.org/2000/svg">
<rect x="6" y="6" width="88.2185" height="88.2185" rx="44.1093" fill="#99EA48" stroke="#FAFAFA" stroke-width="12"/>
<path d="M49.4669 59.1335C49.2914 59.1345 49.1175 59.1009 48.955 59.0345C48.7926 58.9682 48.6448 58.8704 48.5202 58.7468C48.2719 58.497 48.1325 58.1591 48.1325 57.8068C48.1325 57.4546 48.2719 57.1167 48.5202 56.8668L55.3336 50.0002L48.5336 43.2002C48.2852 42.9504 48.1458 42.6124 48.1458 42.2602C48.1458 41.9079 48.2852 41.57 48.5336 41.3202C48.6575 41.1952 48.805 41.096 48.9675 41.0283C49.1299 40.9606 49.3042 40.9258 49.4802 40.9258C49.6563 40.9258 49.8305 40.9606 49.993 41.0283C50.1555 41.096 50.303 41.1952 50.4269 41.3202L58.1602 49.0668C58.4086 49.3167 58.548 49.6546 58.548 50.0068C58.548 50.3591 58.4086 50.697 58.1602 50.9468L50.4269 58.6935C50.3053 58.8284 50.1574 58.9369 49.9923 59.0126C49.8272 59.0883 49.6484 59.1294 49.4669 59.1335ZM43.4269 58.7468L51.1736 51.0002C51.4219 50.7504 51.5613 50.4124 51.5613 50.0602C51.5613 49.7079 51.4219 49.37 51.1736 49.1202L43.4269 41.3735C43.1718 41.1551 42.8437 41.0409 42.5082 41.0539C42.1726 41.0669 41.8543 41.206 41.6168 41.4434C41.3794 41.6809 41.2402 41.9992 41.2273 42.3348C41.2143 42.6703 41.3285 42.9984 41.5469 43.2535L48.3469 50.0535L41.5469 56.8668C41.2986 57.1167 41.1592 57.4546 41.1592 57.8068C41.1592 58.1591 41.2986 58.497 41.5469 58.7468C41.7967 58.9952 42.1347 59.1346 42.4869 59.1346C42.8392 59.1346 43.1771 58.9952 43.4269 58.7468Z" fill="#04070D"/>
</svg>
