<svg width="158" height="158" viewBox="0 0 158 158" fill="none" xmlns="http://www.w3.org/2000/svg">
<g clip-path="url(#clip0_84_452)">
<path d="M0.0258789 0H158.026V158H0.0258789V0Z" fill="#545454"/>
<mask id="mask0_84_452" style="mask-type:luminance" maskUnits="userSpaceOnUse" x="41" y="25" width="93" height="111">
<path d="M41.5957 25.3628H133.238V135.633H41.5957V25.3628Z" fill="white"/>
</mask>
<g mask="url(#mask0_84_452)">
<path fill-rule="evenodd" clip-rule="evenodd" d="M47.7578 95.3805C49.7739 88.4838 52.9392 81.2102 56.8767 74.144C64.0364 61.2742 73.7958 48.7813 83.5178 40.3962C97.2341 28.5625 111.402 24.3039 120.917 35.3461C122.839 37.5696 123.969 40.4149 124.365 43.6559C125.119 50.1757 122.688 59.0507 117.808 68.1143C113.173 76.6502 106.259 85.6385 97.7427 92.9874C87.1353 102.126 74.7379 108.382 60.645 109.418C78.9206 103.86 113.927 64.1761 111.704 45.1069C111.61 44.3906 111.478 43.882 111.308 43.6934C107.672 39.4538 100.06 42.9775 91.8832 50.0437C83.2353 57.5056 74.5118 68.6986 68.0496 80.3435C66.7118 82.7744 65.4495 85.2241 64.3191 87.6546C62.8869 90.5378 61.6812 93.5526 60.7203 96.6053V96.6241C59.4205 100.826 58.5538 105.16 58.1769 109.569C58.1769 110.172 58.1769 110.775 58.2144 111.378C58.2898 113.074 58.6854 114.619 59.3638 115.957C59.5146 116.353 59.6088 116.523 59.6654 116.523C61.6058 119.745 65.6002 121.591 72.2323 121.195C92.6179 120.046 121.803 95.0411 132.617 70.1117C131.77 81.9074 129.565 93.5714 125.966 104.84C120.503 100.355 124.968 104.011 119.561 100.411C109.424 116.899 93.7674 132.746 72.9104 133.915C54.1261 134.97 46.2317 125.831 45.4404 112.057C45.497 106.404 46.2884 100.807 47.7578 95.3805Z" fill="white"/>
</g>
<path fill-rule="evenodd" clip-rule="evenodd" d="M62.4429 44.8936C38.0062 68.7681 34.1438 98.8983 42.867 107.114C28.3031 102.497 26.4944 85.6513 29.9988 72.9136C33.3525 60.816 41.7742 47.1737 53.776 35.5288C54.586 37.3376 55.8109 39.1467 57.3556 40.8425C58.9383 42.5572 60.6908 43.9328 62.4429 44.8936Z" fill="white"/>
<path fill-rule="evenodd" clip-rule="evenodd" d="M69.2322 29.8705C65.5206 25.8386 60.5656 24.369 58.1538 26.5922C55.7423 28.7966 56.7973 33.8835 60.4902 37.9155C64.2019 41.9474 69.1756 43.3984 71.5874 41.194C73.9801 38.952 72.9439 33.8835 69.2322 29.8705Z" fill="white"/>
</g>
<defs>
<clipPath id="clip0_84_452">
<rect width="158" height="158" fill="white"/>
</clipPath>
</defs>
</svg>
