<svg width="34" height="34" viewBox="0 0 34 34" fill="none" xmlns="http://www.w3.org/2000/svg">
<rect width="34" height="34" rx="17" fill="white"/>
<g clip-path="url(#clip0_43_3492)">
<path d="M26 11.7044C25.326 11.9889 24.611 12.1756 23.879 12.2584C24.6415 11.823 25.227 11.1335 25.5027 10.312C24.7778 10.7218 23.9847 11.0105 23.1577 11.1657C22.484 10.482 21.5243 10.0547 20.4621 10.0547C18.4226 10.0547 16.7691 11.6299 16.7691 13.5728C16.7691 13.8486 16.8018 14.117 16.8647 14.3746C13.7956 14.2278 11.0745 12.8272 9.25304 10.6987C8.93523 11.2183 8.75312 11.8227 8.75312 12.4674C8.75312 13.688 9.40513 14.7648 10.396 15.3957C9.80953 15.3782 9.23599 15.2273 8.72323 14.9556C8.72302 14.9704 8.72302 14.9851 8.72302 14.9999C8.72302 16.7045 9.99596 18.1265 11.6853 18.4497C11.1415 18.5906 10.5711 18.6112 10.0176 18.5099C10.4875 19.9077 11.8514 20.9248 13.4673 20.9532C12.2034 21.8968 10.6111 22.4593 8.88095 22.4593C8.58282 22.4593 8.28891 22.4426 8 22.4101C9.63427 23.4083 11.5754 23.9908 13.6609 23.9908C20.4535 23.9908 24.1679 18.6299 24.1679 13.9808C24.1679 13.8282 24.1644 13.6765 24.1573 13.5256C24.8802 13.0277 25.5042 12.411 26 11.7044Z" fill="#192031"/>
</g>
<defs>
<clipPath id="clip0_43_3492">
<rect width="18" height="14" fill="white" transform="translate(8 10)"/>
</clipPath>
</defs>
</svg>
